<mxfile host="embed.diagrams.net" modified="2024-07-21T05:08:53.050Z" agent="Mozilla/5.0 (X11; Linux x86_64; rv:109.0) Gecko/20100101 Firefox/115.0" etag="9W_TIPLeS_5xYd8wKXUx" version="24.7.2" type="embed" pages="2">
  <diagram id="crZ2BiG9OzMMsOEU3VeB" name="Training">
    <mxGraphModel grid="1" page="1" gridSize="10" guides="1" tooltips="1" connect="1" arrows="1" fold="1" pageScale="1" pageWidth="850" pageHeight="1100" background="none" math="1" shadow="0">
      <root>
        <mxCell id="0" />
        <mxCell id="1" parent="0" />
        <mxCell id="o94pe0dCOO36k_xuupqW-1" style="edgeStyle=orthogonalEdgeStyle;rounded=0;orthogonalLoop=1;jettySize=auto;html=1;exitX=0.5;exitY=1;exitDx=0;exitDy=0;shape=flexArrow;" edge="1" parent="1" source="XCDZrhgdnTNGIZVOhDFO-3" target="XCDZrhgdnTNGIZVOhDFO-10">
          <mxGeometry relative="1" as="geometry" />
        </mxCell>
        <mxCell id="XCDZrhgdnTNGIZVOhDFO-3" value="" style="rounded=0;whiteSpace=wrap;html=1;" vertex="1" parent="1">
          <mxGeometry x="94" y="44" width="220" height="120" as="geometry" />
        </mxCell>
        <mxCell id="XCDZrhgdnTNGIZVOhDFO-7" value="&lt;font style=&quot;font-size: 19px;&quot;&gt;$$t_{0..n}$$&lt;/font&gt;" style="rounded=0;whiteSpace=wrap;html=1;" vertex="1" parent="1">
          <mxGeometry x="44" y="44" width="50" height="120" as="geometry" />
        </mxCell>
        <mxCell id="o94pe0dCOO36k_xuupqW-10" style="edgeStyle=orthogonalEdgeStyle;shape=flexArrow;rounded=0;orthogonalLoop=1;jettySize=auto;html=1;exitX=0.5;exitY=1;exitDx=0;exitDy=0;entryX=0.667;entryY=0;entryDx=0;entryDy=0;entryPerimeter=0;" edge="1" parent="1" source="XCDZrhgdnTNGIZVOhDFO-8" target="o94pe0dCOO36k_xuupqW-2">
          <mxGeometry relative="1" as="geometry" />
        </mxCell>
        <mxCell id="XCDZrhgdnTNGIZVOhDFO-8" value="&lt;font style=&quot;font-size: 15px;&quot;&gt;\begin{bmatrix}&lt;br&gt;V_{n+1} \\&lt;br&gt;I_{n+1} \\&lt;br&gt;T_{n+1} \\&lt;br&gt;\\&lt;br&gt;\end{bmatrix}&lt;/font&gt;" style="rounded=0;whiteSpace=wrap;html=1;" vertex="1" parent="1">
          <mxGeometry x="394" y="44" width="80" height="120" as="geometry" />
        </mxCell>
        <mxCell id="o94pe0dCOO36k_xuupqW-9" style="edgeStyle=orthogonalEdgeStyle;shape=flexArrow;rounded=0;orthogonalLoop=1;jettySize=auto;html=1;exitX=0.5;exitY=1;exitDx=0;exitDy=0;entryX=1;entryY=0;entryDx=0;entryDy=0;" edge="1" parent="1" source="XCDZrhgdnTNGIZVOhDFO-10" target="XCDZrhgdnTNGIZVOhDFO-35">
          <mxGeometry relative="1" as="geometry" />
        </mxCell>
        <mxCell id="o94pe0dCOO36k_xuupqW-14" style="edgeStyle=orthogonalEdgeStyle;curved=1;rounded=0;orthogonalLoop=1;jettySize=auto;html=1;exitX=1;exitY=0.5;exitDx=0;exitDy=0;entryX=0.222;entryY=0.467;entryDx=0;entryDy=0;entryPerimeter=0;shape=link;" edge="1" parent="1" source="XCDZrhgdnTNGIZVOhDFO-10" target="o94pe0dCOO36k_xuupqW-2">
          <mxGeometry relative="1" as="geometry" />
        </mxCell>
        <mxCell id="XCDZrhgdnTNGIZVOhDFO-10" value="&lt;font style=&quot;font-size: 14px;&quot;&gt;&lt;br&gt;\begin{bmatrix}V_{1} &amp;amp; V_{2} &amp;amp; ... &amp;amp; V_{n} \\&lt;br&gt;I_{1} &amp;amp; I_{2} &amp;amp; ... &amp;amp; I_{n} \\&lt;br&gt;T_{1} &amp;amp; T_{2} &amp;amp; ... &amp;amp; T_{n} \\&lt;br&gt;SoC_{0} &amp;amp; SoC_{1} &amp;amp; ... &amp;amp; SoC_{n-1} &lt;br&gt;&lt;br&gt;\end{bmatrix}&lt;/font&gt;" style="shape=parallelogram;perimeter=parallelogramPerimeter;whiteSpace=wrap;html=1;fixedSize=1;" vertex="1" parent="1">
          <mxGeometry x="84" y="244" width="240" height="140" as="geometry" />
        </mxCell>
        <mxCell id="XCDZrhgdnTNGIZVOhDFO-18" value="&lt;font style=&quot;font-size: 19px;&quot;&gt;$$t_{n+1}$$&lt;/font&gt;" style="rounded=0;whiteSpace=wrap;html=1;" vertex="1" parent="1">
          <mxGeometry x="344" y="44" width="50" height="120" as="geometry" />
        </mxCell>
        <mxCell id="o94pe0dCOO36k_xuupqW-16" style="edgeStyle=orthogonalEdgeStyle;shape=flexArrow;curved=1;rounded=0;orthogonalLoop=1;jettySize=auto;html=1;exitX=0.5;exitY=1;exitDx=0;exitDy=0;entryX=0.5;entryY=0;entryDx=0;entryDy=0;dashed=1;" edge="1" parent="1" source="XCDZrhgdnTNGIZVOhDFO-24" target="o94pe0dCOO36k_xuupqW-3">
          <mxGeometry relative="1" as="geometry" />
        </mxCell>
        <mxCell id="XCDZrhgdnTNGIZVOhDFO-24" value="&lt;font style=&quot;font-size: 15px;&quot;&gt;\begin{bmatrix}&lt;br&gt;V_{...} \\&lt;br&gt;I_{...} \\&lt;br&gt;T_{...} \\&lt;br&gt;\\&lt;br&gt;\end{bmatrix}&lt;/font&gt;" style="rounded=0;whiteSpace=wrap;html=1;" vertex="1" parent="1">
          <mxGeometry x="554" y="44" width="80" height="120" as="geometry" />
        </mxCell>
        <mxCell id="XCDZrhgdnTNGIZVOhDFO-26" value="&lt;font style=&quot;font-size: 19px;&quot;&gt;$$t_{...}$$&lt;/font&gt;" style="rounded=0;whiteSpace=wrap;html=1;" vertex="1" parent="1">
          <mxGeometry x="504" y="44" width="50" height="120" as="geometry" />
        </mxCell>
        <mxCell id="XCDZrhgdnTNGIZVOhDFO-29" value="&lt;font style=&quot;font-size: 15px;&quot;&gt;\begin{bmatrix}&lt;br&gt;V_{n+r} \\&lt;br&gt;I_{n+r} \\&lt;br&gt;T_{n+r} \\&lt;br&gt;SoC_{n+r}&lt;br&gt;\end{bmatrix}&lt;/font&gt;" style="rounded=0;whiteSpace=wrap;html=1;" vertex="1" parent="1">
          <mxGeometry x="714" y="44" width="80" height="120" as="geometry" />
        </mxCell>
        <mxCell id="XCDZrhgdnTNGIZVOhDFO-31" value="&lt;font style=&quot;font-size: 19px;&quot;&gt;$$t_{n+r}$$&lt;/font&gt;" style="rounded=0;whiteSpace=wrap;html=1;" vertex="1" parent="1">
          <mxGeometry x="664" y="44" width="50" height="120" as="geometry" />
        </mxCell>
        <mxCell id="o94pe0dCOO36k_xuupqW-13" style="edgeStyle=orthogonalEdgeStyle;rounded=0;orthogonalLoop=1;jettySize=auto;html=1;entryX=0.049;entryY=0.707;entryDx=0;entryDy=0;curved=1;entryPerimeter=0;" edge="1" parent="1" target="o94pe0dCOO36k_xuupqW-2">
          <mxGeometry relative="1" as="geometry">
            <mxPoint x="294" y="449" as="sourcePoint" />
            <Array as="points">
              <mxPoint x="324" y="449" />
              <mxPoint x="324" y="352" />
              <mxPoint x="356" y="352" />
              <mxPoint x="356" y="350" />
            </Array>
          </mxGeometry>
        </mxCell>
        <mxCell id="LXa0vXEpqSa32Kdq04du-18" style="edgeStyle=orthogonalEdgeStyle;curved=1;rounded=0;orthogonalLoop=1;jettySize=auto;html=1;exitX=0.5;exitY=1;exitDx=0;exitDy=0;entryX=0.374;entryY=0.025;entryDx=0;entryDy=0;entryPerimeter=0;" edge="1" parent="1" source="qJxFbucAZ7PiT_9XROfE-13">
          <mxGeometry relative="1" as="geometry">
            <mxPoint x="333.31999999999994" y="515" as="targetPoint" />
            <mxPoint x="244" y="464" as="sourcePoint" />
          </mxGeometry>
        </mxCell>
        <mxCell id="XCDZrhgdnTNGIZVOhDFO-35" value="&lt;font style=&quot;font-size: 20px;&quot;&gt;$$^{*}State$$&lt;/font&gt;" style="rounded=0;whiteSpace=wrap;html=1;shadow=0;sketch=1;glass=0;fillColor=#CCCCCC;" vertex="1" parent="1">
          <mxGeometry x="124" y="434" width="80" height="30" as="geometry" />
        </mxCell>
        <mxCell id="o94pe0dCOO36k_xuupqW-11" style="edgeStyle=orthogonalEdgeStyle;shape=flexArrow;rounded=0;orthogonalLoop=1;jettySize=auto;html=1;exitX=0.5;exitY=1;exitDx=0;exitDy=0;entryX=0.936;entryY=0;entryDx=0;entryDy=0;entryPerimeter=0;" edge="1" parent="1" source="o94pe0dCOO36k_xuupqW-2" target="EohAjiDOjax6y5xtBRDv-12">
          <mxGeometry relative="1" as="geometry">
            <mxPoint x="419" y="434" as="targetPoint" />
          </mxGeometry>
        </mxCell>
        <mxCell id="o94pe0dCOO36k_xuupqW-20" style="edgeStyle=orthogonalEdgeStyle;shape=link;curved=1;rounded=0;orthogonalLoop=1;jettySize=auto;html=1;exitX=1;exitY=0.5;exitDx=0;exitDy=0;dashed=1;" edge="1" parent="1" source="o94pe0dCOO36k_xuupqW-2" target="o94pe0dCOO36k_xuupqW-3">
          <mxGeometry relative="1" as="geometry">
            <mxPoint x="504" y="319" as="targetPoint" />
          </mxGeometry>
        </mxCell>
        <mxCell id="o94pe0dCOO36k_xuupqW-2" value="&lt;font style=&quot;font-size: 14px;&quot;&gt;&lt;br&gt;\begin{bmatrix}&lt;br&gt;&lt;br&gt;... &amp;amp; V_{n+1} \\&lt;br&gt;... &amp;amp; I_{n+1} \\&lt;br&gt;... &amp;amp; T_{n+1} \\&lt;br&gt;... &amp;amp; SoC_{n}&lt;br&gt;&lt;br&gt;\end{bmatrix}&lt;/font&gt;" style="shape=parallelogram;perimeter=parallelogramPerimeter;whiteSpace=wrap;html=1;fixedSize=1;" vertex="1" parent="1">
          <mxGeometry x="354" y="244" width="120" height="150" as="geometry" />
        </mxCell>
        <mxCell id="o94pe0dCOO36k_xuupqW-19" style="edgeStyle=orthogonalEdgeStyle;shape=flexArrow;curved=1;rounded=0;orthogonalLoop=1;jettySize=auto;html=1;exitX=0.5;exitY=1;exitDx=0;exitDy=0;entryX=0.5;entryY=0;entryDx=0;entryDy=0;dashed=1;" edge="1" parent="1" source="o94pe0dCOO36k_xuupqW-3">
          <mxGeometry relative="1" as="geometry">
            <mxPoint x="594" y="434" as="targetPoint" />
          </mxGeometry>
        </mxCell>
        <mxCell id="o94pe0dCOO36k_xuupqW-3" value="&lt;div style=&quot;font-size: 14px;&quot;&gt;&lt;font style=&quot;font-size: 14px;&quot;&gt;&lt;i&gt;RNN&amp;nbsp;&lt;/i&gt;&lt;/font&gt;&lt;/div&gt;&lt;div style=&quot;font-size: 14px;&quot;&gt;&lt;font style=&quot;font-size: 14px;&quot;&gt;&lt;i&gt;Model&lt;/i&gt;&lt;/font&gt;&lt;/div&gt;&lt;div style=&quot;font-size: 14px;&quot;&gt;&lt;font style=&quot;font-size: 14px;&quot;&gt;&lt;i&gt;Step r=...&lt;/i&gt;&lt;/font&gt;&lt;/div&gt;" style="shape=parallelogram;perimeter=parallelogramPerimeter;whiteSpace=wrap;html=1;fixedSize=1;" vertex="1" parent="1">
          <mxGeometry x="547" y="244" width="95" height="150" as="geometry" />
        </mxCell>
        <mxCell id="LXa0vXEpqSa32Kdq04du-19" style="edgeStyle=orthogonalEdgeStyle;curved=1;rounded=0;orthogonalLoop=1;jettySize=auto;html=1;exitX=0.5;exitY=1;exitDx=0;exitDy=0;entryX=0.603;entryY=0;entryDx=0;entryDy=0;entryPerimeter=0;" edge="1" parent="1" source="qJxFbucAZ7PiT_9XROfE-17">
          <mxGeometry relative="1" as="geometry">
            <mxPoint x="459" y="464" as="sourcePoint" />
            <mxPoint x="489.03999999999996" y="514" as="targetPoint" />
          </mxGeometry>
        </mxCell>
        <mxCell id="LXa0vXEpqSa32Kdq04du-20" style="edgeStyle=orthogonalEdgeStyle;curved=1;rounded=0;orthogonalLoop=1;jettySize=auto;html=1;exitX=0.5;exitY=1;exitDx=0;exitDy=0;entryX=0.897;entryY=-0.025;entryDx=0;entryDy=0;entryPerimeter=0;" edge="1" parent="1" source="qJxFbucAZ7PiT_9XROfE-24">
          <mxGeometry relative="1" as="geometry">
            <mxPoint x="688.96" y="513" as="targetPoint" />
            <mxPoint x="624" y="464" as="sourcePoint" />
          </mxGeometry>
        </mxCell>
        <mxCell id="QkKc4coWP-6dHhCVXp6O-1" style="edgeStyle=orthogonalEdgeStyle;curved=1;rounded=0;orthogonalLoop=1;jettySize=auto;html=1;exitX=1;exitY=0.5;exitDx=0;exitDy=0;entryX=0.5;entryY=1;entryDx=0;entryDy=0;strokeColor=#000000;" edge="1" parent="1" source="qJxFbucAZ7PiT_9XROfE-24" target="XCDZrhgdnTNGIZVOhDFO-29">
          <mxGeometry relative="1" as="geometry">
            <mxPoint x="664" y="449" as="sourcePoint" />
          </mxGeometry>
        </mxCell>
        <mxCell id="o94pe0dCOO36k_xuupqW-24" value="&lt;font style=&quot;font-size: 20px;&quot;&gt;$$^{*}S$$&lt;/font&gt;" style="rounded=0;whiteSpace=wrap;html=1;shadow=0;sketch=1;glass=0;fillColor=#CCCCCC;dashed=1;" vertex="1" parent="1">
          <mxGeometry x="554" y="434" width="30" height="30" as="geometry" />
        </mxCell>
        <mxCell id="EohAjiDOjax6y5xtBRDv-3" value="" style="shape=image;html=1;verticalAlign=top;verticalLabelPosition=bottom;labelBackgroundColor=#ffffff;imageAspect=0;aspect=fixed;image=https://cdn4.iconfinder.com/data/icons/developer-set-3/128/sc1-128.png;sketch=1;strokeColor=#000000;fillColor=#CCCCCC;" vertex="1" parent="1">
          <mxGeometry x="94" y="424" width="50" height="50" as="geometry" />
        </mxCell>
        <mxCell id="EohAjiDOjax6y5xtBRDv-4" value="" style="shape=image;html=1;verticalAlign=top;verticalLabelPosition=bottom;labelBackgroundColor=#ffffff;imageAspect=0;aspect=fixed;image=https://cdn4.iconfinder.com/data/icons/developer-set-3/128/sc2-128.png;sketch=1;strokeColor=#000000;fillColor=#CCCCCC;" vertex="1" parent="1">
          <mxGeometry x="264" y="424" width="50" height="50" as="geometry" />
        </mxCell>
        <mxCell id="EohAjiDOjax6y5xtBRDv-12" value="&lt;font style=&quot;font-size: 20px;&quot;&gt;$$^{*}State$$&lt;/font&gt;" style="rounded=0;whiteSpace=wrap;html=1;shadow=0;sketch=1;glass=0;fillColor=#CCCCCC;" vertex="1" parent="1">
          <mxGeometry x="339" y="434" width="80" height="30" as="geometry" />
        </mxCell>
        <mxCell id="EohAjiDOjax6y5xtBRDv-13" value="" style="shape=image;html=1;verticalAlign=top;verticalLabelPosition=bottom;labelBackgroundColor=#ffffff;imageAspect=0;aspect=fixed;image=https://cdn4.iconfinder.com/data/icons/developer-set-3/128/sc1-128.png;sketch=1;strokeColor=#000000;fillColor=#CCCCCC;" vertex="1" parent="1">
          <mxGeometry x="309" y="424" width="50" height="50" as="geometry" />
        </mxCell>
        <mxCell id="EohAjiDOjax6y5xtBRDv-14" value="" style="shape=image;html=1;verticalAlign=top;verticalLabelPosition=bottom;labelBackgroundColor=#ffffff;imageAspect=0;aspect=fixed;image=https://cdn4.iconfinder.com/data/icons/developer-set-3/128/sc2-128.png;sketch=1;strokeColor=#000000;fillColor=#CCCCCC;" vertex="1" parent="1">
          <mxGeometry x="479" y="424" width="50" height="50" as="geometry" />
        </mxCell>
        <mxCell id="EohAjiDOjax6y5xtBRDv-15" style="edgeStyle=orthogonalEdgeStyle;rounded=0;orthogonalLoop=1;jettySize=auto;html=1;curved=1;dashed=1;" edge="1" parent="1">
          <mxGeometry relative="1" as="geometry">
            <mxPoint x="504" y="451.19" as="sourcePoint" />
            <mxPoint x="554" y="354" as="targetPoint" />
            <Array as="points">
              <mxPoint x="524" y="451" />
              <mxPoint x="524" y="354" />
            </Array>
          </mxGeometry>
        </mxCell>
        <mxCell id="QkKc4coWP-6dHhCVXp6O-2" value="&lt;div style=&quot;font-size: 17px;&quot;&gt;&lt;font style=&quot;font-size: 17px;&quot;&gt;Output and &lt;br&gt;&lt;/font&gt;&lt;/div&gt;&lt;div style=&quot;font-size: 17px;&quot;&gt;&lt;font style=&quot;font-size: 17px;&quot;&gt;Feed-Forward&lt;/font&gt;&lt;/div&gt;" style="text;html=1;align=center;verticalAlign=middle;resizable=0;points=[];autosize=1;strokeColor=none;" vertex="1" parent="1">
          <mxGeometry x="666" y="441" width="140" height="50" as="geometry" />
        </mxCell>
        <mxCell id="ad8eQGUpzs7Xfykc0ktB-1" value="&lt;font style=&quot;font-size: 16px;&quot;&gt;$$SoC_{n+r}$$&lt;/font&gt;" style="rounded=0;whiteSpace=wrap;html=1;dashed=1;sketch=0;strokeColor=#000000;" vertex="1" parent="1">
          <mxGeometry x="584" y="514" width="165" height="40" as="geometry" />
        </mxCell>
        <mxCell id="ad8eQGUpzs7Xfykc0ktB-2" value="&lt;font style=&quot;font-size: 16px;&quot;&gt;$$SoC_{...}$$&lt;/font&gt;" style="rounded=0;whiteSpace=wrap;html=1;sketch=0;strokeColor=#000000;" vertex="1" parent="1">
          <mxGeometry x="419" y="514" width="165" height="40" as="geometry" />
        </mxCell>
        <mxCell id="ad8eQGUpzs7Xfykc0ktB-3" value="&lt;font style=&quot;font-size: 16px;&quot;&gt;$$SoC_{n}$$&lt;/font&gt;" style="rounded=0;whiteSpace=wrap;html=1;sketch=0;strokeColor=#000000;" vertex="1" parent="1">
          <mxGeometry x="254" y="514" width="165" height="40" as="geometry" />
        </mxCell>
        <mxCell id="ad8eQGUpzs7Xfykc0ktB-4" value="&lt;font style=&quot;font-size: 16px;&quot;&gt;&lt;i&gt;Returned training array&lt;br&gt;&lt;/i&gt;&lt;/font&gt;" style="rounded=0;whiteSpace=wrap;html=1;sketch=0;strokeColor=#000000;" vertex="1" parent="1">
          <mxGeometry x="89" y="514" width="165" height="40" as="geometry" />
        </mxCell>
        <mxCell id="qJxFbucAZ7PiT_9XROfE-2" value="" style="whiteSpace=wrap;html=1;fillColor=#5e5c64;fontColor=#ffffff;strokeColor=none;fillStyle=solid;opacity=40;" vertex="1" parent="1">
          <mxGeometry x="106" y="60.75" width="196" height="83" as="geometry" />
        </mxCell>
        <mxCell id="qJxFbucAZ7PiT_9XROfE-3" value="&lt;font style=&quot;font-size: 16px;&quot;&gt;&amp;nbsp; Autoregressive width &lt;i&gt;r&amp;nbsp;&amp;nbsp;&lt;/i&gt;&lt;/font&gt; " style="endArrow=classic;startArrow=classic;html=1;rounded=0;" edge="1" parent="1">
          <mxGeometry width="50" height="50" relative="1" as="geometry">
            <mxPoint x="257" y="584" as="sourcePoint" />
            <mxPoint x="747" y="584" as="targetPoint" />
          </mxGeometry>
        </mxCell>
        <mxCell id="qJxFbucAZ7PiT_9XROfE-6" value="&lt;font style=&quot;font-size: 14px;&quot;&gt;&lt;b&gt;RNN Model Warmup&lt;/b&gt;&lt;/font&gt;" style="text;html=1;strokeColor=none;fillColor=none;align=center;verticalAlign=middle;whiteSpace=wrap;rounded=0;" vertex="1" parent="1">
          <mxGeometry x="114" y="254" width="190" height="30" as="geometry" />
        </mxCell>
        <mxCell id="qJxFbucAZ7PiT_9XROfE-7" value="&lt;div style=&quot;font-size: 14px;&quot;&gt;&lt;font style=&quot;font-size: 14px;&quot;&gt;&lt;b&gt;RNN Model&lt;/b&gt;&lt;/font&gt;&lt;/div&gt;&lt;div style=&quot;font-size: 14px;&quot;&gt;&lt;font style=&quot;font-size: 14px;&quot;&gt;&lt;b&gt;&lt;i&gt;r&lt;/i&gt;=1&lt;/b&gt;&lt;/font&gt;&lt;/div&gt;" style="text;html=1;strokeColor=none;fillColor=none;align=center;verticalAlign=middle;whiteSpace=wrap;rounded=0;" vertex="1" parent="1">
          <mxGeometry x="346" y="254" width="150" height="30" as="geometry" />
        </mxCell>
        <mxCell id="qJxFbucAZ7PiT_9XROfE-8" value="" style="whiteSpace=wrap;html=1;fillColor=#5e5c64;fontColor=#ffffff;strokeColor=none;fillStyle=solid;opacity=40;" vertex="1" parent="1">
          <mxGeometry x="104" y="282" width="200" height="82" as="geometry" />
        </mxCell>
        <mxCell id="qJxFbucAZ7PiT_9XROfE-9" value="" style="whiteSpace=wrap;html=1;fillColor=#5e5c64;fontColor=#ffffff;strokeColor=none;fillStyle=solid;opacity=40;" vertex="1" parent="1">
          <mxGeometry x="375" y="286" width="79" height="67" as="geometry" />
        </mxCell>
        <mxCell id="qJxFbucAZ7PiT_9XROfE-10" value="" style="whiteSpace=wrap;html=1;fillColor=#5e5c64;fontColor=#ffffff;strokeColor=none;fillStyle=solid;opacity=40;" vertex="1" parent="1">
          <mxGeometry x="414" y="60" width="40" height="70" as="geometry" />
        </mxCell>
        <mxCell id="qJxFbucAZ7PiT_9XROfE-11" value="" style="whiteSpace=wrap;html=1;fillColor=#5e5c64;fontColor=#ffffff;strokeColor=none;fillStyle=solid;opacity=40;" vertex="1" parent="1">
          <mxGeometry x="579" y="60" width="30" height="70" as="geometry" />
        </mxCell>
        <mxCell id="qJxFbucAZ7PiT_9XROfE-12" value="" style="whiteSpace=wrap;html=1;fillColor=#5e5c64;fontColor=#ffffff;strokeColor=none;fillStyle=solid;opacity=40;" vertex="1" parent="1">
          <mxGeometry x="736.25" y="60" width="37" height="70" as="geometry" />
        </mxCell>
        <mxCell id="qJxFbucAZ7PiT_9XROfE-13" value="&lt;div style=&quot;font-size: 13px;&quot;&gt;&lt;font style=&quot;font-size: 20px;&quot;&gt;$$SoC_{n}$$&lt;/font&gt;&lt;/div&gt;" style="rounded=0;whiteSpace=wrap;html=1;shadow=0;sketch=1;glass=0;fillColor=#CCCCCC;" vertex="1" parent="1">
          <mxGeometry x="204" y="434" width="80" height="30" as="geometry" />
        </mxCell>
        <mxCell id="qJxFbucAZ7PiT_9XROfE-15" value="" style="rounded=0;whiteSpace=wrap;html=1;shadow=0;sketch=1;glass=0;fillColor=#CCCCCC;strokeColor=none;" vertex="1" parent="1">
          <mxGeometry x="404" y="353" width="50" height="15" as="geometry" />
        </mxCell>
        <mxCell id="qJxFbucAZ7PiT_9XROfE-16" value="" style="whiteSpace=wrap;html=1;fillColor=#5e5c64;fontColor=#ffffff;strokeColor=none;fillStyle=solid;opacity=40;" vertex="1" parent="1">
          <mxGeometry x="375" y="353" width="29" height="15" as="geometry" />
        </mxCell>
        <mxCell id="qJxFbucAZ7PiT_9XROfE-17" value="&lt;div style=&quot;font-size: 13px;&quot;&gt;&lt;font style=&quot;font-size: 20px;&quot;&gt;$$SoC_{...}$$&lt;/font&gt;&lt;/div&gt;" style="rounded=0;whiteSpace=wrap;html=1;shadow=0;sketch=1;glass=0;fillColor=#CCCCCC;" vertex="1" parent="1">
          <mxGeometry x="417" y="434" width="80" height="30" as="geometry" />
        </mxCell>
        <mxCell id="qJxFbucAZ7PiT_9XROfE-18" value="" style="whiteSpace=wrap;html=1;fillColor=#5e5c64;fontColor=#ffffff;strokeColor=default;fillStyle=solid;opacity=40;" vertex="1" parent="1">
          <mxGeometry x="44" y="182" width="22" height="22" as="geometry" />
        </mxCell>
        <mxCell id="qJxFbucAZ7PiT_9XROfE-19" value="" style="rounded=0;whiteSpace=wrap;html=1;shadow=0;sketch=1;glass=0;fillColor=#CCCCCC;" vertex="1" parent="1">
          <mxGeometry x="44" y="213" width="22" height="22" as="geometry" />
        </mxCell>
        <mxCell id="qJxFbucAZ7PiT_9XROfE-20" value="&lt;font style=&quot;font-size: 14px;&quot;&gt;Actual Input Values&lt;/font&gt;" style="text;html=1;strokeColor=none;fillColor=none;align=center;verticalAlign=middle;whiteSpace=wrap;rounded=0;" vertex="1" parent="1">
          <mxGeometry x="74" y="178" width="110" height="30" as="geometry" />
        </mxCell>
        <mxCell id="qJxFbucAZ7PiT_9XROfE-22" value="&lt;font style=&quot;font-size: 14px;&quot;&gt;Predicted Values&lt;/font&gt;" style="text;html=1;strokeColor=none;fillColor=none;align=center;verticalAlign=middle;whiteSpace=wrap;rounded=0;" vertex="1" parent="1">
          <mxGeometry x="74" y="209" width="110" height="30" as="geometry" />
        </mxCell>
        <mxCell id="qJxFbucAZ7PiT_9XROfE-23" value="" style="rounded=0;whiteSpace=wrap;html=1;shadow=0;sketch=1;glass=0;fillColor=#CCCCCC;strokeColor=none;" vertex="1" parent="1">
          <mxGeometry x="724" y="129" width="60" height="20" as="geometry" />
        </mxCell>
        <mxCell id="qJxFbucAZ7PiT_9XROfE-24" value="&lt;div style=&quot;font-size: 13px;&quot;&gt;&lt;font style=&quot;font-size: 20px;&quot;&gt;$$SoC_{n+r}$$&lt;/font&gt;&lt;/div&gt;" style="rounded=0;whiteSpace=wrap;html=1;shadow=0;sketch=1;glass=0;fillColor=#CCCCCC;dashed=1;" vertex="1" parent="1">
          <mxGeometry x="584" y="434" width="80" height="30" as="geometry" />
        </mxCell>
        <mxCell id="pH9zMusGy0Py452BENZc-5" value="&lt;font style=&quot;font-size: 14px;&quot;&gt;&lt;br&gt;\begin{bmatrix}V_{1} &amp;amp; V_{2} &amp;amp; ... &amp;amp; V_{n} \\&lt;br&gt;I_{1} &amp;amp; I_{2} &amp;amp; ... &amp;amp; I_{n} \\&lt;br&gt;T_{1} &amp;amp; T_{2} &amp;amp; ... &amp;amp; T_{n} \\&lt;br&gt;SoC_{0} &amp;amp; SoC_{1} &amp;amp; ... &amp;amp; SoC_{n-1} \end{bmatrix}&lt;/font&gt;" style="text;html=1;align=center;verticalAlign=middle;whiteSpace=wrap;rounded=0;" vertex="1" parent="1">
          <mxGeometry x="174" y="76.5" width="60" height="34.5" as="geometry" />
        </mxCell>
      </root>
    </mxGraphModel>
  </diagram>
  <diagram id="gzVpmXlE485gArGo9z1c" name="Testing">
    <mxGraphModel dx="957" dy="739" grid="1" gridSize="10" guides="1" tooltips="1" connect="1" arrows="1" fold="1" page="1" pageScale="1" pageWidth="850" pageHeight="1100" math="1" shadow="0">
      <root>
        <mxCell id="hAO7hAi269DrB56qql01-0" />
        <mxCell id="hAO7hAi269DrB56qql01-1" parent="hAO7hAi269DrB56qql01-0" />
        <mxCell id="EoD5F6IBePZIznWZzs-L-0" style="edgeStyle=orthogonalEdgeStyle;rounded=0;orthogonalLoop=1;jettySize=auto;html=1;exitX=0.5;exitY=1;exitDx=0;exitDy=0;shape=flexArrow;" parent="hAO7hAi269DrB56qql01-1" source="EoD5F6IBePZIznWZzs-L-1" target="EoD5F6IBePZIznWZzs-L-7" edge="1">
          <mxGeometry relative="1" as="geometry" />
        </mxCell>
        <mxCell id="EoD5F6IBePZIznWZzs-L-1" value="&lt;br&gt;\begin{bmatrix}V_{1} &amp;amp; V_{2} &amp;amp; ... &amp;amp; V_{n} \\&lt;br&gt;I_{1} &amp;amp; I_{2} &amp;amp; ... &amp;amp; I_{n} \\&lt;br&gt;T_{1} &amp;amp; T_{2} &amp;amp; ... &amp;amp; T_{n} \\&lt;br&gt;SoC_{0} &amp;amp; SoC_{1} &amp;amp; ... &amp;amp; SoC_{n-1} &lt;br&gt;&lt;br&gt;\end{bmatrix}" style="rounded=0;whiteSpace=wrap;html=1;" parent="hAO7hAi269DrB56qql01-1" vertex="1">
          <mxGeometry x="68" y="80" width="220" height="120" as="geometry" />
        </mxCell>
        <mxCell id="EoD5F6IBePZIznWZzs-L-2" value="$$t_{0..n}=$$" style="rounded=0;whiteSpace=wrap;html=1;" parent="hAO7hAi269DrB56qql01-1" vertex="1">
          <mxGeometry x="18" y="80" width="50" height="120" as="geometry" />
        </mxCell>
        <mxCell id="EoD5F6IBePZIznWZzs-L-4" value="\begin{bmatrix}&lt;br&gt;&lt;br&gt;V_{n+1} \\&lt;br&gt;I_{n+1} \\&lt;br&gt;T_{n+1} \\&lt;br&gt;...&lt;br&gt;\end{bmatrix}" style="rounded=0;whiteSpace=wrap;html=1;" parent="hAO7hAi269DrB56qql01-1" vertex="1">
          <mxGeometry x="368" y="80" width="80" height="120" as="geometry" />
        </mxCell>
        <mxCell id="EoD5F6IBePZIznWZzs-L-5" style="edgeStyle=orthogonalEdgeStyle;shape=flexArrow;rounded=0;orthogonalLoop=1;jettySize=auto;html=1;exitX=0.5;exitY=1;exitDx=0;exitDy=0;entryX=1;entryY=0;entryDx=0;entryDy=0;" parent="hAO7hAi269DrB56qql01-1" source="EoD5F6IBePZIznWZzs-L-7" edge="1">
          <mxGeometry relative="1" as="geometry">
            <mxPoint x="178" y="470" as="targetPoint" />
          </mxGeometry>
        </mxCell>
        <mxCell id="EoD5F6IBePZIznWZzs-L-7" value="&lt;font style=&quot;font-size: 19px&quot;&gt;&lt;i&gt;RNN Trained Model&lt;/i&gt;&lt;/font&gt;" style="shape=parallelogram;perimeter=parallelogramPerimeter;whiteSpace=wrap;html=1;fixedSize=1;" parent="hAO7hAi269DrB56qql01-1" vertex="1">
          <mxGeometry x="73" y="280" width="210" height="140" as="geometry" />
        </mxCell>
        <mxCell id="EoD5F6IBePZIznWZzs-L-9" value="$$t_{n+1}=$$" style="rounded=0;whiteSpace=wrap;html=1;" parent="hAO7hAi269DrB56qql01-1" vertex="1">
          <mxGeometry x="318" y="80" width="50" height="120" as="geometry" />
        </mxCell>
        <mxCell id="EoD5F6IBePZIznWZzs-L-18" style="edgeStyle=orthogonalEdgeStyle;rounded=0;orthogonalLoop=1;jettySize=auto;html=1;exitX=1;exitY=0.5;exitDx=0;exitDy=0;entryX=0.5;entryY=1;entryDx=0;entryDy=0;curved=1;" parent="hAO7hAi269DrB56qql01-1" source="EoD5F6IBePZIznWZzs-L-19" target="EoD5F6IBePZIznWZzs-L-4" edge="1">
          <mxGeometry relative="1" as="geometry">
            <Array as="points">
              <mxPoint x="408" y="485" />
            </Array>
            <mxPoint x="353.625" y="387.8125" as="targetPoint" />
          </mxGeometry>
        </mxCell>
        <mxCell id="pgdwpMo8X7RpPd3TtBQ6-0" style="edgeStyle=orthogonalEdgeStyle;curved=1;rounded=0;orthogonalLoop=1;jettySize=auto;html=1;exitX=0.5;exitY=1;exitDx=0;exitDy=0;entryX=0.726;entryY=-0.025;entryDx=0;entryDy=0;entryPerimeter=0;" parent="hAO7hAi269DrB56qql01-1" source="EoD5F6IBePZIznWZzs-L-19" target="OrtW55Lt4wMcaCU9RlNc-1" edge="1">
          <mxGeometry relative="1" as="geometry" />
        </mxCell>
        <mxCell id="EoD5F6IBePZIznWZzs-L-19" value="$$SoC_{n}$$" style="rounded=0;whiteSpace=wrap;html=1;" parent="hAO7hAi269DrB56qql01-1" vertex="1">
          <mxGeometry x="138" y="470" width="80" height="30" as="geometry" />
        </mxCell>
        <mxCell id="MB4BxVEnagyXRzrDTIFz-0" value="&lt;b&gt;&lt;font style=&quot;font-size: 18px&quot;&gt;Custom training loop: Testing/prediction procedure&lt;/font&gt;&lt;/b&gt;" style="text;html=1;strokeColor=none;fillColor=none;align=center;verticalAlign=middle;whiteSpace=wrap;rounded=0;sketch=1;" parent="hAO7hAi269DrB56qql01-1" vertex="1">
          <mxGeometry x="220" y="30" width="450" height="20" as="geometry" />
        </mxCell>
        <mxCell id="gDVI329R5uzebLVvEOHE-0" value="&lt;br&gt;\begin{bmatrix}V_{2} &amp;amp; V_{3} &amp;amp; ... &amp;amp; V_{n+1} \\&lt;br&gt;I_{2} &amp;amp; I_{3} &amp;amp; ... &amp;amp; I_{n+1} \\&lt;br&gt;T_{2} &amp;amp; T_{3} &amp;amp; ... &amp;amp; T_{n+1} \\&lt;br&gt;SoC_{1} &amp;amp; SoC_{2} &amp;amp; ... &amp;amp; SoC_{n} &lt;br&gt;&lt;br&gt;\end{bmatrix}" style="rounded=0;whiteSpace=wrap;html=1;" parent="hAO7hAi269DrB56qql01-1" vertex="1">
          <mxGeometry x="538" y="80" width="220" height="120" as="geometry" />
        </mxCell>
        <mxCell id="gDVI329R5uzebLVvEOHE-1" value="$$t_{1..n+1}=$$" style="rounded=0;whiteSpace=wrap;html=1;" parent="hAO7hAi269DrB56qql01-1" vertex="1">
          <mxGeometry x="478" y="80" width="60" height="120" as="geometry" />
        </mxCell>
        <mxCell id="gDVI329R5uzebLVvEOHE-8" style="edgeStyle=orthogonalEdgeStyle;rounded=0;orthogonalLoop=1;jettySize=auto;html=1;exitX=0.5;exitY=1;exitDx=0;exitDy=0;shape=flexArrow;" parent="hAO7hAi269DrB56qql01-1" target="gDVI329R5uzebLVvEOHE-10" edge="1">
          <mxGeometry relative="1" as="geometry">
            <mxPoint x="573" y="200" as="sourcePoint" />
          </mxGeometry>
        </mxCell>
        <mxCell id="gDVI329R5uzebLVvEOHE-9" style="edgeStyle=orthogonalEdgeStyle;shape=flexArrow;rounded=0;orthogonalLoop=1;jettySize=auto;html=1;exitX=0.5;exitY=1;exitDx=0;exitDy=0;entryX=1;entryY=0;entryDx=0;entryDy=0;" parent="hAO7hAi269DrB56qql01-1" source="gDVI329R5uzebLVvEOHE-10" edge="1">
          <mxGeometry relative="1" as="geometry">
            <mxPoint x="573" y="470" as="targetPoint" />
          </mxGeometry>
        </mxCell>
        <mxCell id="gDVI329R5uzebLVvEOHE-10" value="&lt;font style=&quot;font-size: 19px&quot;&gt;&lt;i&gt;RNN Trained Model&lt;/i&gt;&lt;/font&gt;" style="shape=parallelogram;perimeter=parallelogramPerimeter;whiteSpace=wrap;html=1;fixedSize=1;" parent="hAO7hAi269DrB56qql01-1" vertex="1">
          <mxGeometry x="468" y="280" width="210" height="140" as="geometry" />
        </mxCell>
        <mxCell id="gDVI329R5uzebLVvEOHE-11" style="edgeStyle=orthogonalEdgeStyle;rounded=0;orthogonalLoop=1;jettySize=auto;html=1;exitX=1;exitY=0.5;exitDx=0;exitDy=0;entryX=0.5;entryY=1;entryDx=0;entryDy=0;curved=1;" parent="hAO7hAi269DrB56qql01-1" source="gDVI329R5uzebLVvEOHE-12" edge="1">
          <mxGeometry relative="1" as="geometry">
            <Array as="points">
              <mxPoint x="803" y="485" />
            </Array>
            <mxPoint x="803" y="200" as="targetPoint" />
          </mxGeometry>
        </mxCell>
        <mxCell id="pgdwpMo8X7RpPd3TtBQ6-5" style="edgeStyle=orthogonalEdgeStyle;curved=1;rounded=0;orthogonalLoop=1;jettySize=auto;html=1;exitX=0.5;exitY=1;exitDx=0;exitDy=0;entryX=0.731;entryY=-0.025;entryDx=0;entryDy=0;entryPerimeter=0;" parent="hAO7hAi269DrB56qql01-1" source="gDVI329R5uzebLVvEOHE-12" target="pgdwpMo8X7RpPd3TtBQ6-2" edge="1">
          <mxGeometry relative="1" as="geometry" />
        </mxCell>
        <mxCell id="gDVI329R5uzebLVvEOHE-12" value="$$SoC_{n+1}$$" style="rounded=0;whiteSpace=wrap;html=1;" parent="hAO7hAi269DrB56qql01-1" vertex="1">
          <mxGeometry x="533" y="470" width="80" height="30" as="geometry" />
        </mxCell>
        <mxCell id="gDVI329R5uzebLVvEOHE-13" value="\begin{bmatrix}&lt;br&gt;&lt;br&gt;V_{...} \\&lt;br&gt;I_{...} \\&lt;br&gt;T_{...} \\&lt;br&gt;...&lt;br&gt;\end{bmatrix}" style="rounded=0;whiteSpace=wrap;html=1;" parent="hAO7hAi269DrB56qql01-1" vertex="1">
          <mxGeometry x="788" y="80" width="45" height="120" as="geometry" />
        </mxCell>
        <mxCell id="OrtW55Lt4wMcaCU9RlNc-0" value="" style="shape=table;startSize=0;container=1;collapsible=0;childLayout=tableLayout;" parent="hAO7hAi269DrB56qql01-1" vertex="1">
          <mxGeometry x="73" y="550" width="197" height="40" as="geometry" />
        </mxCell>
        <mxCell id="OrtW55Lt4wMcaCU9RlNc-1" value="" style="shape=partialRectangle;collapsible=0;dropTarget=0;pointerEvents=0;fillColor=none;top=0;left=0;bottom=0;right=0;points=[[0,0.5],[1,0.5]];portConstraint=eastwest;" parent="OrtW55Lt4wMcaCU9RlNc-0" vertex="1">
          <mxGeometry width="197" height="40" as="geometry" />
        </mxCell>
        <mxCell id="OrtW55Lt4wMcaCU9RlNc-2" value="&lt;i&gt;Returned prediction array =&lt;/i&gt;" style="shape=partialRectangle;html=1;whiteSpace=wrap;connectable=0;overflow=hidden;fillColor=none;top=0;left=0;bottom=0;right=0;" parent="OrtW55Lt4wMcaCU9RlNc-1" vertex="1">
          <mxGeometry width="99" height="40" as="geometry" />
        </mxCell>
        <mxCell id="OrtW55Lt4wMcaCU9RlNc-3" value="$$SoC_{n}$$" style="shape=partialRectangle;html=1;whiteSpace=wrap;connectable=0;overflow=hidden;fillColor=none;top=0;left=0;bottom=0;right=0;" parent="OrtW55Lt4wMcaCU9RlNc-1" vertex="1">
          <mxGeometry x="99" width="98" height="40" as="geometry" />
        </mxCell>
        <mxCell id="pgdwpMo8X7RpPd3TtBQ6-1" value="" style="shape=table;startSize=0;container=1;collapsible=0;childLayout=tableLayout;" parent="hAO7hAi269DrB56qql01-1" vertex="1">
          <mxGeometry x="468" y="550" width="197" height="40" as="geometry" />
        </mxCell>
        <mxCell id="pgdwpMo8X7RpPd3TtBQ6-2" value="" style="shape=partialRectangle;collapsible=0;dropTarget=0;pointerEvents=0;fillColor=none;top=0;left=0;bottom=0;right=0;points=[[0,0.5],[1,0.5]];portConstraint=eastwest;" parent="pgdwpMo8X7RpPd3TtBQ6-1" vertex="1">
          <mxGeometry width="197" height="40" as="geometry" />
        </mxCell>
        <mxCell id="pgdwpMo8X7RpPd3TtBQ6-3" value="&lt;i&gt;Returned prediction array =&lt;/i&gt;" style="shape=partialRectangle;html=1;whiteSpace=wrap;connectable=0;overflow=hidden;fillColor=none;top=0;left=0;bottom=0;right=0;" parent="pgdwpMo8X7RpPd3TtBQ6-2" vertex="1">
          <mxGeometry width="99" height="40" as="geometry" />
        </mxCell>
        <mxCell id="pgdwpMo8X7RpPd3TtBQ6-4" value="$$SoC_{n+1}$$" style="shape=partialRectangle;html=1;whiteSpace=wrap;connectable=0;overflow=hidden;fillColor=none;top=0;left=0;bottom=0;right=0;" parent="pgdwpMo8X7RpPd3TtBQ6-2" vertex="1">
          <mxGeometry x="99" width="98" height="40" as="geometry" />
        </mxCell>
        <mxCell id="_OOPtzlgQHNfV4Se-Rs8-0" value="&lt;div style=&quot;font-size: 14px&quot;&gt;&lt;font style=&quot;font-size: 14px&quot;&gt;Output and &lt;br&gt;&lt;/font&gt;&lt;/div&gt;&lt;div style=&quot;font-size: 14px&quot;&gt;&lt;font style=&quot;font-size: 14px&quot;&gt;Feed-Forward&lt;/font&gt;&lt;/div&gt;" style="text;html=1;align=center;verticalAlign=middle;resizable=0;points=[];autosize=1;strokeColor=none;" parent="hAO7hAi269DrB56qql01-1" vertex="1">
          <mxGeometry x="230" y="500" width="100" height="30" as="geometry" />
        </mxCell>
        <mxCell id="_OOPtzlgQHNfV4Se-Rs8-1" value="&lt;div style=&quot;font-size: 14px&quot;&gt;&lt;font style=&quot;font-size: 14px&quot;&gt;Output and &lt;br&gt;&lt;/font&gt;&lt;/div&gt;&lt;div style=&quot;font-size: 14px&quot;&gt;&lt;font style=&quot;font-size: 14px&quot;&gt;Feed-Forward&lt;/font&gt;&lt;/div&gt;" style="text;html=1;align=center;verticalAlign=middle;resizable=0;points=[];autosize=1;strokeColor=none;" parent="hAO7hAi269DrB56qql01-1" vertex="1">
          <mxGeometry x="630" y="500" width="100" height="30" as="geometry" />
        </mxCell>
      </root>
    </mxGraphModel>
  </diagram>
</mxfile>
